<svg width="64" height="64" viewBox="0 0 64 64" fill="none" xmlns="http://www.w3.org/2000/svg">
<path d="M12.1177 12.1177C18.2937 5.94177 21.3817 2.85378 24.8265 1.42689C29.4196 -0.47563 34.5804 -0.47563 39.1735 1.42689C42.6183 2.85378 45.7063 5.94177 51.8823 12.1177C58.0582 18.2937 61.1462 21.3817 62.5731 24.8265C64.4756 29.4196 64.4756 34.5804 62.5731 39.1735C61.1462 42.6183 58.0582 45.7063 51.8823 51.8823C45.7063 58.0582 42.6183 61.1462 39.1735 62.5731C34.5804 64.4756 29.4196 64.4756 24.8265 62.5731C21.3817 61.1462 18.2937 58.0582 12.1177 51.8823C5.94177 45.7063 2.85378 42.6183 1.42689 39.1735C-0.47563 34.5804 -0.47563 29.4196 1.42689 24.8265C2.85378 21.3817 5.94177 18.2937 12.1177 12.1177Z" fill="#E5E5E5"/>
<path d="M17.9411 32C17.9411 27.6329 17.9411 25.4494 18.6546 23.727C19.6058 21.4304 21.4304 19.6058 23.727 18.6546C25.4494 17.9411 27.6329 17.9411 32 17.9411H46.0589V46.0589H32C27.6329 46.0589 25.4494 46.0589 23.727 45.3454C21.4304 44.3942 19.6058 42.5696 18.6546 40.273C17.9411 38.5506 17.9411 36.3671 17.9411 32Z" fill="white"/>
<path d="M32 17.9411H41.3726V27.3137C41.3726 22.1374 37.1763 17.9411 32 17.9411Z" fill="#E5E5E5"/>
<path d="M41.3726 36.6863V46.0589H32C37.1763 46.0589 41.3726 41.8626 41.3726 36.6863Z" fill="#E5E5E5"/>
</svg>
