<svg width="145" height="64" viewBox="0 0 145 64" fill="none" xmlns="http://www.w3.org/2000/svg">
<path d="M12.1177 12.1177C18.2937 5.94177 21.3817 2.85378 24.8265 1.42689C29.4196 -0.47563 34.5804 -0.47563 39.1735 1.42689C42.6183 2.85378 45.7063 5.94177 51.8823 12.1177C58.0582 18.2937 61.1462 21.3817 62.5731 24.8265C64.4756 29.4196 64.4756 34.5804 62.5731 39.1735C61.1462 42.6183 58.0582 45.7063 51.8823 51.8823C45.7063 58.0582 42.6183 61.1462 39.1735 62.5731C34.5804 64.4756 29.4196 64.4756 24.8265 62.5731C21.3817 61.1462 18.2937 58.0582 12.1177 51.8823C5.94177 45.7063 2.85378 42.6183 1.42689 39.1735C-0.47563 34.5804 -0.47563 29.4196 1.42689 24.8265C2.85378 21.3817 5.94177 18.2937 12.1177 12.1177Z" fill="#111111"/>
<path d="M17.9411 32C17.9411 27.6329 17.9411 25.4494 18.6546 23.727C19.6058 21.4304 21.4304 19.6058 23.727 18.6546C25.4494 17.9411 27.6329 17.9411 32 17.9411H46.0589V46.0589H32C27.6329 46.0589 25.4494 46.0589 23.727 45.3454C21.4304 44.3942 19.6058 42.5696 18.6546 40.273C17.9411 38.5506 17.9411 36.3671 17.9411 32Z" fill="white"/>
<path d="M32 17.9411H41.3726V27.3137C41.3726 22.1374 37.1763 17.9411 32 17.9411Z" fill="#111111"/>
<path d="M41.3726 36.6863V46.0589H32C37.1763 46.0589 41.3726 41.8626 41.3726 36.6863Z" fill="#111111"/>
<path d="M98.072 43.068H100.88L91.844 21.468H89.036L80 43.068H82.772L85.472 36.408H95.372L98.072 43.068ZM87.308 31.836C88.316 29.316 89.468 26.364 90.332 24.024H90.512C91.34 26.328 92.528 29.316 93.536 31.836L94.508 34.212H86.336L87.308 31.836Z" fill="#111111"/>
<path d="M104.404 43.068V33.888C104.404 30.396 105.988 29.028 109.336 29.028H110.704V26.328H109.552C106.78 26.328 105.088 27.768 104.476 31.188H104.404V26.328H101.92V43.068H104.404Z" fill="#111111"/>
<path d="M124.794 32.88L127.17 32.412C126.414 28.344 123.966 25.932 119.25 25.932C114.39 25.932 110.754 29.172 110.754 34.68C110.754 40.188 114.138 43.464 119.394 43.464C123.966 43.464 126.414 41.016 127.242 36.876L124.866 36.336C124.146 39.036 123.03 41.16 119.322 41.16C115.65 41.16 113.274 38.748 113.274 34.716C113.274 30.432 115.722 28.236 119.214 28.236C122.49 28.236 124.146 29.964 124.794 32.88Z" fill="#111111"/>
<path d="M132.002 33.096C132.002 30 133.946 28.2 137.15 28.2C140.57 28.2 141.614 30.612 141.614 33.096V43.068H144.098V32.556C144.098 28.956 142.622 25.932 138.014 25.932C134.99 25.932 132.758 27.552 132.038 30.828H132.002V21H129.518V43.068H132.002V33.096Z" fill="#111111"/>
</svg>
